<svg width="32" height="31" viewBox="0 0 32 31" fill="none" xmlns="http://www.w3.org/2000/svg">
<path d="M30.2348 0.00195312H2.65869C1.71441 0.00195312 0.947754 0.767076 0.947754 1.71289V29.289C0.947754 30.2348 1.71441 31.0009 2.65869 31.0009H17.5048V18.9963H13.4654V14.3173H17.5048V10.8668C17.5048 6.86356 19.9492 4.68253 23.5212 4.68253C25.2337 4.68253 26.7021 4.81064 27.1304 4.86628V9.05072L24.6528 9.05174C22.7106 9.05174 22.336 9.9751 22.336 11.3292V14.3157H26.9696L26.3637 18.9943H22.3355V30.9994H30.2343C31.1796 30.9994 31.9467 30.2322 31.9467 29.289V1.71187C31.9462 0.767076 31.1801 0.00195312 30.2348 0.00195312Z" fill="#6D6D6D"/>
</svg>
