<svg width="32" height="31" viewBox="0 0 32 31" fill="none" xmlns="http://www.w3.org/2000/svg">
<path d="M26.9331 0H5.01514C2.51143 0 0.474121 2.03731 0.474121 4.54102V26.459C0.474121 28.9627 2.51143 31 5.01514 31H26.9331C29.4368 31 31.4741 28.9627 31.4741 26.459V4.54102C31.4741 2.03731 29.4368 0 26.9331 0ZM16.0347 23.6133C11.5275 23.6133 7.86084 19.9466 7.86084 15.4395C7.86084 10.9323 11.5275 7.26562 16.0347 7.26562C20.5419 7.26562 24.2085 10.9323 24.2085 15.4395C24.2085 19.9466 20.5419 23.6133 16.0347 23.6133ZM25.1167 9.08203C23.6144 9.08203 22.3921 7.85974 22.3921 6.35742C22.3921 4.8551 23.6144 3.63281 25.1167 3.63281C26.619 3.63281 27.8413 4.8551 27.8413 6.35742C27.8413 7.85974 26.619 9.08203 25.1167 9.08203Z" fill="#6D6D6D"/>
<path d="M25.1167 5.44922C24.6155 5.44922 24.2085 5.85625 24.2085 6.35742C24.2085 6.85859 24.6155 7.26562 25.1167 7.26562C25.6179 7.26562 26.0249 6.85859 26.0249 6.35742C26.0249 5.85625 25.6179 5.44922 25.1167 5.44922Z" fill="#6D6D6D"/>
<path d="M16.0347 9.08203C12.5296 9.08203 9.67725 11.9344 9.67725 15.4395C9.67725 18.9445 12.5296 21.7969 16.0347 21.7969C19.5398 21.7969 22.3921 18.9445 22.3921 15.4395C22.3921 11.9344 19.5398 9.08203 16.0347 9.08203Z" fill="#6D6D6D"/>
</svg>
