<?xml version="1.0" encoding="utf-8"?>
<!-- Generator: Adobe Illustrator 25.4.1, SVG Export Plug-In . SVG Version: 6.00 Build 0)  -->
<svg version="1.1" id="Слой_1" xmlns="http://www.w3.org/2000/svg" xmlns:xlink="http://www.w3.org/1999/xlink" x="0px" y="0px"
	 viewBox="0 0 1400 1400" style="enable-background:new 0 0 1400 1400;" xml:space="preserve">
<style type="text/css">
	.st0{fill:#FFFFFF;}
</style>
<g>
	<path class="st0" d="M1077.6,478.3L703.2,262.2c-2-1.1-4.4-1.1-6.4,0L322.4,478.3c-2,1.1-3.2,3.3-3.2,5.5l0,432.3
		c0,2.3,1.2,4.4,3.2,5.5l374.4,216.1c2,1.1,4.4,1.1,6.4,0l374.4-216.1c2-1.1,3.2-3.3,3.2-5.5l0-432.3
		C1080.8,481.6,1079.5,479.5,1077.6,478.3z"/>
	<g>
		<polygon points="403.8,636.3 403.8,544 701.1,374.5 995.9,547.9 996.2,674.2 913.8,628.4 913.8,589.9 700,468.5 		"/>
		<polygon points="403.8,741.3 403.8,888.5 652.4,1025.5 653.9,566.1 574.6,616.8 574.6,887.9 483.7,837.5 483.7,697.5 		"/>
		<polygon points="742.9,566.1 742.9,693 911.9,791.8 911.9,838.4 827.4,886.7 827.4,815.3 742.9,772.2 744.4,1025.5 995.8,884.4 
			995.8,745.1 826.9,650.9 826.9,608.5 		"/>
	</g>
</g>
</svg>
